<svg id="Layer_1" data-name="Layer 1" xmlns="http://www.w3.org/2000/svg" viewBox="0 0 236.86 41.37"><defs><style>.cls-1{fill:#fff;}</style></defs><title>stlogo</title><path class="cls-1" d="M62.53,56.14V45.73c0-.73,0-2.76-.07-4C62.4,38,62.4,38,60.68,38H59.9V36.79h9V38H67.67a.86.86,0,0,0-.94.94V51.15c0,.84,0,2.79.07,4,.07,3.73.07,3.73,1.77,3.73h1.26v1.22H60.37V58.86h1.22c.81,0,.94-.28.94-.59V56.14Z" transform="translate(-26.3 -24.35)"/><path class="cls-1" d="M85.2,39.37v.35c0,.42-.18.6-.49.6s-.45-.14-.56-.6c-.21-1.22-2-2.13-4.19-2.13-2.76,0-4.82,1.68-4.82,3.92,0,1.92,1,3,4,4.05l1.85.69c4.34,1.61,6.12,3.64,6.12,7,0,4.4-3.88,7.58-9.19,7.58a18.21,18.21,0,0,1-6.08-1l-.49-2.55a4.92,4.92,0,0,1-.14-1,.47.47,0,0,1,.53-.53c.35,0,.45.14.66.74.56,1.64,3,2.9,5.73,2.9,3.21,0,5.52-1.93,5.52-4.62,0-2.09-1.29-3.42-4.51-4.61l-1.85-.66C73.57,48,71.82,46,71.82,43c0-4,3.67-6.95,8.77-6.95a13,13,0,0,1,4.47.7Z" transform="translate(-26.3 -24.35)"/><path class="cls-1" d="M102.59,39.37v.35c0,.42-.17.6-.48.6s-.46-.14-.56-.6c-.21-1.22-2-2.13-4.19-2.13-2.76,0-4.83,1.68-4.83,3.92,0,1.92,1,3,4,4.05l1.86.69c4.33,1.61,6.11,3.64,6.11,7,0,4.4-3.88,7.58-9.18,7.58a18.17,18.17,0,0,1-6.08-1l-.49-2.55a4.92,4.92,0,0,1-.14-1,.46.46,0,0,1,.52-.53c.35,0,.45.14.67.74.55,1.64,3,2.9,5.73,2.9,3.21,0,5.51-1.93,5.51-4.62,0-2.09-1.29-3.42-4.51-4.61l-1.85-.66C91,48,89.22,46,89.22,43c0-4,3.66-6.95,8.77-6.95a12.92,12.92,0,0,1,4.46.7Z" transform="translate(-26.3 -24.35)"/><path class="cls-1" d="M130.47,48c0,7.4-5.28,12.75-12.51,12.75S106.12,56.18,106.12,49c0-7.51,5.28-12.89,12.61-12.89S130.47,40.7,130.47,48Zm-20.12-.91c0,7.27,3.59,12.33,8.73,12.33,4.4,0,7.13-3.67,7.13-9.61,0-7.33-3.53-12.43-8.59-12.43C113,37.42,110.35,41,110.35,47.13Z" transform="translate(-26.3 -24.35)"/><path class="cls-1" d="M182.29,58.86c-1.71,0-1.71,0-1.78-3.73,0-1.19-.07-3.14-.07-4V39a2.44,2.44,0,0,0,0-.43s.11-.51.91-.51h1.26V36.79h-9.5V38h1.25c1.72,0,1.72,0,1.79,3.73,0,1.22.07,3.25.07,4V58.27c0,.26-.14.59-.95.59h-.92c-1,0-1.75-.62-3.57-3.07-1.12-1.5-1-1.36-3-4.43l-1.72-2.59c3.18-.49,5.17-2.62,5.17-5.55a5.93,5.93,0,0,0-2.44-4.89c-1.47-1.12-3.11-1.54-5.87-1.54H147.26V38h1.26c1.71,0,1.71,0,1.79,3.73,0,1.15.06,3.22.06,4v3.64c0,4.22-.24,5.55-1.32,7.08a6.85,6.85,0,0,1-5.77,2.63,5.72,5.72,0,0,1-5.34-2.8c-.7-1.39-.88-2.8-.88-6.6V39c0-.14-.07-.94.95-.94h1.22V36.79H130V38h1c1.72,0,1.72,0,1.78,3.73,0,1.15.07,3.11.07,4v5.35c0,4.25.46,5.86,2.06,7.37A11.78,11.78,0,0,0,149.6,58c1.71-1.78,2.27-3.77,2.27-8V39c0-.14-.07-.94.95-.94h1.33c1.72,0,1.72,0,1.78,3.73,0,1.15.07,3.22.07,4V57.5c0,1,.06,1.36-.94,1.36h-1.22v1.22h9.33V58.86H162c-1.64,0-1.64,0-1.72-3.73,0-1.15-.07-3.11-.07-4V49.54c.53,0,.88.07,1.23.07h1l.94,1.54.49.94.49.94.53,1a41.35,41.35,0,0,0,2.2,3.56,14.27,14.27,0,0,0,1.71,2.2c.28.25.52.31,1.39.31h13V58.86Zm-20.8-10.58-1.3,0v-9.4c0-.11.11-.63,1.05-.63a5.71,5.71,0,0,1,2.94.52,5.53,5.53,0,0,1,2.9,5C167.08,46.57,165,48.28,161.49,48.28Z" transform="translate(-26.3 -24.35)"/><path class="cls-1" d="M58.29,58.8c-1.94,0-1.9-.07-2.07-3.83,0-1-.08-3.92-.08-5.44V35.13A1,1,0,0,1,57.22,34h1.4V32.58H51.87c-.37.74-.58,1.19-1.07,2.35-.7,1.73-.66,1.61-1.78,4.12l-2.64,6.23-.32.74-.33.75-.33.78s-.46,1.11-1,2.43-.61,1.49-.94,2.27L34.18,32.58H26.3V34H27c2.39,0,2.89,1,2.89,5.94v.95l-.05,1v9.52c0,3.26,0,2.81,0,4v2.68c0,.45-.16.69-1.11.69H27.16v1.28h8V58.8H33.76c-1.89,0-1.94-.19-2.1-2.59-.12-1.44-.21-4.33-.21-6.68V44.2c0-5.07,0-4.65.13-6L41,58.89h1.25l9.31-21.45v20.5c0,.31-.17.86-1.12.86H49v1.28H59.25V58.8Z" transform="translate(-26.3 -24.35)"/><path class="cls-1" d="M215,52.75a8.82,8.82,0,0,1,2.9-6.84,9.82,9.82,0,0,0-1.1-1.3c-1.59-1.61-4.56-3-7.45-4.19s-5.48-2.15-7.73-4a3.57,3.57,0,0,1-1.29-3.06c0-3.28,2.79-5.08,7.14-5.08,3.28,0,6.49,1.43,7.81,3.12,1.08,1.38,1.43,2.57,2.46,2.57.7,0,1-.57,1-1.32L218,25.5A39.08,39.08,0,0,0,208,24.35c-9.35,0-15.7,4.83-15.7,12,0,5.24,2.88,9.16,9.7,11.64l3.56,1.44c5.25,2.14,6.18,3.4,6.18,6.51,0,4.2-3.63,5.89-8.52,5.89-4.35,0-8-2.41-9.27-5.35-.47-1.26-1-1.55-1.61-1.41a1,1,0,0,0-.86,1.19c.05.39,1.23,7.6,1.23,7.6a33.3,33.3,0,0,0,11,1.84c6.3,0,11.37-2.33,14.12-6.09A9.31,9.31,0,0,1,215,52.75Z" transform="translate(-26.3 -24.35)"/><path class="cls-1" d="M261.89,25.05h-32.1s-1.27,7.58-1.27,7.87a.9.9,0,0,0,1,.88c.64,0,.62-.39,1.46-1.52,1.66-2.24,3.46-3.16,8.13-3.16l2,0-.19,13.66A8.39,8.39,0,0,1,247.1,48a5.94,5.94,0,0,1,.35,2.49,2.82,2.82,0,0,1-.66,1.79,1.24,1.24,0,0,1-1.47.32,28.65,28.65,0,0,0-4.42-2.18c0,3.6,0,7.44,0,7.8,0,1,0,3.89-2.87,4.14l-.7.08a1.11,1.11,0,0,0-1.05,1.16,1.09,1.09,0,0,0,1.05,1.17h17a1.09,1.09,0,0,0,1-1.17,1.11,1.11,0,0,0-1-1.16l-.7-.08c-3-.09-2.86-3.55-2.86-3.55l-.29-29.7,2.08,0c4.68,0,6.48.92,8.13,3.16.84,1.13.82,1.52,1.46,1.52a.9.9,0,0,0,1-.88C263.16,32.63,261.89,25.05,261.89,25.05Z" transform="translate(-26.3 -24.35)"/><path class="cls-1" d="M245.41,49.59c-.74-2.72-3.74-5.08-7.88-5.08a8.41,8.41,0,0,0-7,3.35l-.14-.18c-.81-1-3.08-3.84-3.67-4.59l0-.07h0l-.1-.12c-1.5-2-.35-4.12,1.46-4.37a3.72,3.72,0,0,1,2.42.6c.43.28,1,.52,1.39,0s-.16-1.35-.71-1.77a6.29,6.29,0,0,0-3.94-1.27c-3.71,0-6.36,2.24-6.36,5.84a7,7,0,0,0,.82,3.17h0a5.41,5.41,0,0,0,.51.92,6.5,6.5,0,0,0-5,6.72c0,4.83,3.88,8,10.26,8a14.92,14.92,0,0,0,6.5-1.49,4.09,4.09,0,0,0,2.71,1.24c2.18,0,2-2,2-2.52V48.13a.46.46,0,0,1,.49-.42A12,12,0,0,1,244.85,50h0a.35.35,0,0,0,.43,0C245.41,50,245.48,49.87,245.41,49.59Zm-16.22,8.54c-3.91,0-6.63-3-6.63-7.25a6.29,6.29,0,0,1,.78-3,49,49,0,0,0,8.79,9.61A8.1,8.1,0,0,1,229.19,58.13ZM236,48.3v0h0v5.34A53.7,53.7,0,0,1,231.51,49h0a12.49,12.49,0,0,1,4-1.25.48.48,0,0,1,.42.53Z" transform="translate(-26.3 -24.35)"/></svg>